<?xml version="1.0" standalone="no"?>
<!DOCTYPE svg PUBLIC "-//W3C//DTD SVG 20010904//EN"
 "http://www.w3.org/TR/2001/REC-SVG-20010904/DTD/svg10.dtd">
<svg version="1.0" xmlns="http://www.w3.org/2000/svg"
 width="75.000000pt" height="75.000000pt" viewBox="0 0 75.000000 75.000000"
 preserveAspectRatio="xMidYMid meet">

<g transform="translate(0.000000,75.000000) scale(0.100000,-0.100000)"
fill="#000000" stroke="none">
<path d="M273 662 c-251 -90 -272 -432 -35 -549 47 -23 70 -28 132 -28 126 1
216 57 269 169 16 33 44 74 60 90 l31 30 -33 35 c-19 20 -41 57 -51 82 -52
143 -227 223 -373 171z m171 -54 c86 -26 166 -136 166 -228 0 -124 -116 -240
-240 -240 -124 0 -240 116 -240 240 0 63 23 114 75 165 70 71 145 90 239 63z"/>
</g>
</svg>
